<?xml version="1.0" encoding="UTF-8" standalone="no"?>
<svg width="40px" height="35px" viewBox="0 0 40 35" version="1.1" xmlns="http://www.w3.org/2000/svg" xmlns:xlink="http://www.w3.org/1999/xlink">
    <!-- Generator: Sketch 40.1 (33804) - http://www.bohemiancoding.com/sketch -->
    <title>FYND-LOGO</title>
    <desc>Created with Sketch.</desc>
    <defs></defs>
    <g id="Desktop" stroke="none" stroke-width="1" fill="none" fill-rule="evenodd">
        <g id="Desktop-Copy-3" transform="translate(-445.000000, -22.000000)" fill="#FFFFFF">
            <g id="FYND-LOGO" transform="translate(445.000000, 22.000000)">
                <path d="M30.0189655,14.6862152 C30.2352586,15.5184061 30.3448276,16.3804829 30.3448276,17.248366 C30.3448276,22.8983159 25.7041379,27.4949201 20,27.4949201 C14.2958621,27.4949201 9.65517241,22.8983159 9.65517241,17.248366 C9.65517241,11.5984161 14.2958621,7.00181195 20,7.00181195 C22.374569,7.00181195 24.6075862,7.7767076 26.4575,9.24281871 C26.755,9.47848945 27.1889655,9.43075759 27.4268966,9.13616916 C27.6648276,8.84158073 27.6166379,8.41173779 27.3192241,8.17598165 C25.252069,6.53781382 22.6526724,5.63560474 20,5.63560474 C13.5352586,5.63560474 8.27586207,10.8450382 8.27586207,17.248366 C8.27586207,23.6516938 13.5352586,28.8611273 20,28.8611273 C26.4646552,28.8611273 31.7241379,23.6516938 31.7241379,17.248366 C31.7241379,16.2657215 31.5999138,15.2891395 31.3548276,14.345688 C31.2598276,13.980313 30.8839655,13.760439 30.515,13.8543658 C30.1461207,13.9484633 29.9240517,14.3208401 30.0189655,14.6862152 L30.0189655,14.6862152 Z" id="Shape"></path>
                <path d="M28.3293966,10.0470024 C28.0275862,10.2770376 27.9711207,10.7059412 28.2033621,11.0049698 C28.5365517,11.4338735 28.8373276,11.8916383 29.0971552,12.3657122 C29.2221552,12.5936981 29.4591379,12.7229754 29.7037931,12.7229754 C29.815,12.7229754 29.9278448,12.696249 30.0324138,12.6400637 C30.367069,12.4599805 30.4910345,12.0453366 30.3093103,11.7137752 C30.0147414,11.1765142 29.6740517,10.6577824 29.2966379,10.171925 C29.0643103,9.8728964 28.6314655,9.8168819 28.3293966,10.0470024 L28.3293966,10.0470024 Z" id="Shape"></path>
                <path d="M22.6712931,17.9314696 L28.9655172,17.9314696 C29.3463793,17.9314696 29.6551724,17.62561 29.6551724,17.248366 C29.6551724,16.871122 29.3463793,16.5652624 28.9655172,16.5652624 L22.6712931,16.5652624 C22.5441379,16.0776972 22.2838793,15.6429018 21.9318103,15.3002399 L25.08,9.89928127 C25.2705172,9.57258697 25.1574138,9.15478373 24.8275862,8.96616175 C24.4977586,8.77745438 24.0759483,8.88948337 23.8855172,9.21617767 L20.7380172,14.6160263 C20.502931,14.5513022 20.2556034,14.5159516 20,14.5159516 C19.7443966,14.5159516 19.497069,14.5513022 19.2619828,14.6160263 L16.1144828,9.21617767 C15.9240517,8.88948337 15.5022414,8.77771054 15.1724138,8.96616175 C14.8425862,9.15478373 14.729569,9.57258697 14.92,9.89928127 L18.0681897,15.3002399 C17.7161207,15.6428164 17.4558621,16.0776972 17.3287069,16.565177 L11.0344828,16.565177 C10.6536207,16.565177 10.3448276,16.8710367 10.3448276,17.2482806 C10.3448276,17.6255246 10.6536207,17.9313842 11.0344828,17.9313842 L17.3287069,17.9313842 C17.4558621,18.418864 17.7161207,18.8537449 18.0681897,19.1963213 L14.92,24.59728 C14.729569,24.9239743 14.8425862,25.3417775 15.1724138,25.5303995 C15.2810345,25.5925619 15.399569,25.6220208 15.5166379,25.6220208 C15.755,25.6220208 15.9868103,25.4994891 16.114569,25.2803836 L19.262069,19.880535 C19.4971552,19.945259 19.7444828,19.9806097 20.0000862,19.9806097 C20.2556897,19.9806097 20.5030172,19.945259 20.7381034,19.880535 L23.8856034,25.2803836 C24.0132759,25.4994891 24.2450862,25.6220208 24.4835345,25.6220208 C24.600431,25.6220208 24.7190517,25.5924765 24.8276724,25.5303995 C25.1575,25.3417775 25.2706034,24.9239743 25.0800862,24.59728 L21.9318966,19.1963213 C22.2838793,18.8539156 22.5441379,18.4190348 22.6712931,17.9314696 L22.6712931,17.9314696 Z M18.6206897,17.248366 C18.6206897,16.4950735 19.2394828,15.8821588 20,15.8821588 C20.7605172,15.8821588 21.3793103,16.4950735 21.3793103,17.248366 C21.3793103,18.0016585 20.7605172,18.6145732 20,18.6145732 C19.2394828,18.6145732 18.6206897,18.0016585 18.6206897,17.248366 L18.6206897,17.248366 Z" id="Shape"></path>
                <path d="M39.3103448,16.5652624 L33.7758621,16.5652624 C33.5500862,12.0456782 31.0964655,8.09733935 27.482931,5.77683641 L30.2524138,1.02550929 C30.442931,0.698814987 30.3298276,0.281011745 30,0.0923897625 C29.6701724,-0.0962322203 29.2482759,0.0157113829 29.057931,0.342405682 L26.2898276,5.09142733 C24.4027586,4.12970284 22.2643103,3.58629392 20,3.58629392 C17.7357759,3.58629392 15.5972414,4.12970284 13.7102586,5.09142733 L10.9421552,0.342405682 C10.7518103,0.0157113829 10.3299138,-0.0961468323 10.0000862,0.0923897625 C9.67025862,0.281011745 9.55724138,0.698814987 9.74767241,1.02550929 L12.5171552,5.77683641 C8.90353448,8.09742474 6.44991379,12.0457636 6.22413793,16.5652624 L0.689655172,16.5652624 C0.308793103,16.5652624 0,16.871122 0,17.248366 C0,17.62561 0.308793103,17.9314696 0.689655172,17.9314696 L6.22413793,17.9314696 C6.44991379,22.4509685 8.90353448,26.3993073 12.517069,28.7198956 L9.74758621,33.4712227 C9.55715517,33.797917 9.67017241,34.2157203 10,34.4043423 C10.1086207,34.4665047 10.2271552,34.4959635 10.3442241,34.4959635 C10.5825862,34.4959635 10.8143966,34.3734318 10.9421552,34.1543263 L13.7102586,29.4053047 C15.5972414,30.3670292 17.7357759,30.9104381 20,30.9104381 C22.2643103,30.9104381 24.4027586,30.3670292 26.2898276,29.4053047 L29.057931,34.1543263 C29.1856034,34.3734318 29.4174138,34.4959635 29.6558621,34.4959635 C29.7727586,34.4959635 29.8913793,34.4664193 30,34.4043423 C30.3298276,34.2157203 30.442931,33.797917 30.2524138,33.4712227 L27.482931,28.7198956 C31.0964655,26.3993927 33.5500862,22.4510538 33.7758621,17.9314696 L39.3103448,17.9314696 C39.6912069,17.9314696 40,17.62561 40,17.248366 C40,16.871122 39.6912069,16.5652624 39.3103448,16.5652624 L39.3103448,16.5652624 Z M20,29.5442309 C13.155,29.5442309 7.5862069,24.0283401 7.5862069,17.248366 C7.5862069,10.468392 13.155,4.95250113 20,4.95250113 C26.845,4.95250113 32.4137931,10.468392 32.4137931,17.248366 C32.4137931,24.0283401 26.845,29.5442309 20,29.5442309 L20,29.5442309 Z" id="Shape"></path>
            </g>
        </g>
    </g>
</svg>